<mxfile host="app.diagrams.net" agent="Mozilla/5.0 (X11; Ubuntu; Linux x86_64; rv:136.0) Gecko/20100101 Firefox/136.0" version="26.1.1">
  <diagram name="Página-1" id="0gcBhEvxnfGRNLVZjUHe">
    <mxGraphModel dx="1707" dy="1554" grid="1" gridSize="10" guides="1" tooltips="1" connect="1" arrows="1" fold="1" page="1" pageScale="1" pageWidth="827" pageHeight="1169" math="0" shadow="0">
      <root>
        <mxCell id="0" />
        <mxCell id="1" parent="0" />
        <mxCell id="6a526D09Ed9itnyHOBgA-7" style="edgeStyle=orthogonalEdgeStyle;rounded=0;orthogonalLoop=1;jettySize=auto;html=1;exitX=1;exitY=0.5;exitDx=0;exitDy=0;" edge="1" parent="1" source="6a526D09Ed9itnyHOBgA-1" target="6a526D09Ed9itnyHOBgA-6">
          <mxGeometry relative="1" as="geometry">
            <Array as="points">
              <mxPoint x="80" y="130" />
              <mxPoint x="80" y="230" />
            </Array>
          </mxGeometry>
        </mxCell>
        <mxCell id="6a526D09Ed9itnyHOBgA-1" value="Pessoa" style="rounded=0;whiteSpace=wrap;html=1;" vertex="1" parent="1">
          <mxGeometry x="10" y="100" width="130" height="60" as="geometry" />
        </mxCell>
        <mxCell id="6a526D09Ed9itnyHOBgA-9" style="edgeStyle=orthogonalEdgeStyle;rounded=0;orthogonalLoop=1;jettySize=auto;html=1;exitX=0.5;exitY=1;exitDx=0;exitDy=0;entryX=0.5;entryY=0;entryDx=0;entryDy=0;" edge="1" parent="1" source="6a526D09Ed9itnyHOBgA-3" target="6a526D09Ed9itnyHOBgA-6">
          <mxGeometry relative="1" as="geometry" />
        </mxCell>
        <mxCell id="6a526D09Ed9itnyHOBgA-3" value="Banco" style="rounded=0;whiteSpace=wrap;html=1;" vertex="1" parent="1">
          <mxGeometry x="280" y="40" width="130" height="60" as="geometry" />
        </mxCell>
        <mxCell id="6a526D09Ed9itnyHOBgA-8" style="edgeStyle=orthogonalEdgeStyle;rounded=0;orthogonalLoop=1;jettySize=auto;html=1;exitX=0;exitY=0.5;exitDx=0;exitDy=0;" edge="1" parent="1" source="6a526D09Ed9itnyHOBgA-4" target="6a526D09Ed9itnyHOBgA-6">
          <mxGeometry relative="1" as="geometry">
            <Array as="points">
              <mxPoint x="680" y="120" />
              <mxPoint x="680" y="230" />
            </Array>
          </mxGeometry>
        </mxCell>
        <mxCell id="6a526D09Ed9itnyHOBgA-4" value="Companhia" style="rounded=0;whiteSpace=wrap;html=1;" vertex="1" parent="1">
          <mxGeometry x="620" y="90" width="130" height="60" as="geometry" />
        </mxCell>
        <mxCell id="6a526D09Ed9itnyHOBgA-6" value="U" style="ellipse;whiteSpace=wrap;html=1;aspect=fixed;" vertex="1" parent="1">
          <mxGeometry x="305" y="190" width="80" height="80" as="geometry" />
        </mxCell>
        <mxCell id="6a526D09Ed9itnyHOBgA-11" style="edgeStyle=orthogonalEdgeStyle;rounded=0;orthogonalLoop=1;jettySize=auto;html=1;" edge="1" parent="1" source="6a526D09Ed9itnyHOBgA-10" target="6a526D09Ed9itnyHOBgA-6">
          <mxGeometry relative="1" as="geometry" />
        </mxCell>
        <mxCell id="6a526D09Ed9itnyHOBgA-10" value="&lt;div&gt;Owner&lt;/div&gt;&lt;div&gt;&lt;br&gt;&lt;/div&gt;" style="rounded=0;whiteSpace=wrap;html=1;" vertex="1" parent="1">
          <mxGeometry x="280" y="390" width="130" height="60" as="geometry" />
        </mxCell>
        <mxCell id="6a526D09Ed9itnyHOBgA-28" style="edgeStyle=orthogonalEdgeStyle;rounded=0;orthogonalLoop=1;jettySize=auto;html=1;" edge="1" parent="1" source="6a526D09Ed9itnyHOBgA-12" target="6a526D09Ed9itnyHOBgA-1">
          <mxGeometry relative="1" as="geometry" />
        </mxCell>
        <mxCell id="6a526D09Ed9itnyHOBgA-12" value="CPF" style="ellipse;whiteSpace=wrap;html=1;" vertex="1" parent="1">
          <mxGeometry width="95" height="50" as="geometry" />
        </mxCell>
        <mxCell id="6a526D09Ed9itnyHOBgA-26" style="edgeStyle=orthogonalEdgeStyle;rounded=0;orthogonalLoop=1;jettySize=auto;html=1;entryX=1;entryY=0.75;entryDx=0;entryDy=0;" edge="1" parent="1" source="6a526D09Ed9itnyHOBgA-14" target="6a526D09Ed9itnyHOBgA-1">
          <mxGeometry relative="1" as="geometry">
            <mxPoint x="167.5" y="140" as="targetPoint" />
          </mxGeometry>
        </mxCell>
        <mxCell id="6a526D09Ed9itnyHOBgA-14" value="&lt;div&gt;Nome&lt;/div&gt;" style="ellipse;whiteSpace=wrap;html=1;" vertex="1" parent="1">
          <mxGeometry x="120" width="95" height="50" as="geometry" />
        </mxCell>
        <mxCell id="6a526D09Ed9itnyHOBgA-31" style="edgeStyle=orthogonalEdgeStyle;rounded=0;orthogonalLoop=1;jettySize=auto;html=1;entryX=0.25;entryY=1;entryDx=0;entryDy=0;" edge="1" parent="1" source="6a526D09Ed9itnyHOBgA-15" target="6a526D09Ed9itnyHOBgA-1">
          <mxGeometry relative="1" as="geometry" />
        </mxCell>
        <mxCell id="6a526D09Ed9itnyHOBgA-15" value="&lt;div&gt;Licença&lt;/div&gt;" style="ellipse;whiteSpace=wrap;html=1;" vertex="1" parent="1">
          <mxGeometry x="-110" y="150" width="95" height="50" as="geometry" />
        </mxCell>
        <mxCell id="6a526D09Ed9itnyHOBgA-29" style="edgeStyle=orthogonalEdgeStyle;rounded=0;orthogonalLoop=1;jettySize=auto;html=1;" edge="1" parent="1" source="6a526D09Ed9itnyHOBgA-16" target="6a526D09Ed9itnyHOBgA-1">
          <mxGeometry relative="1" as="geometry" />
        </mxCell>
        <mxCell id="6a526D09Ed9itnyHOBgA-16" value="Endereço" style="ellipse;whiteSpace=wrap;html=1;" vertex="1" parent="1">
          <mxGeometry x="-110" y="70" width="95" height="50" as="geometry" />
        </mxCell>
        <mxCell id="6a526D09Ed9itnyHOBgA-25" style="edgeStyle=orthogonalEdgeStyle;rounded=0;orthogonalLoop=1;jettySize=auto;html=1;" edge="1" parent="1" source="6a526D09Ed9itnyHOBgA-17" target="6a526D09Ed9itnyHOBgA-3">
          <mxGeometry relative="1" as="geometry" />
        </mxCell>
        <mxCell id="6a526D09Ed9itnyHOBgA-17" value="&lt;div&gt;BNome&lt;/div&gt;" style="ellipse;whiteSpace=wrap;html=1;" vertex="1" parent="1">
          <mxGeometry x="297.5" y="-80" width="95" height="50" as="geometry" />
        </mxCell>
        <mxCell id="6a526D09Ed9itnyHOBgA-24" style="edgeStyle=orthogonalEdgeStyle;rounded=0;orthogonalLoop=1;jettySize=auto;html=1;entryX=1;entryY=0.75;entryDx=0;entryDy=0;" edge="1" parent="1" source="6a526D09Ed9itnyHOBgA-18" target="6a526D09Ed9itnyHOBgA-3">
          <mxGeometry relative="1" as="geometry" />
        </mxCell>
        <mxCell id="6a526D09Ed9itnyHOBgA-18" value="&lt;div&gt;Bendereço&lt;/div&gt;" style="ellipse;whiteSpace=wrap;html=1;" vertex="1" parent="1">
          <mxGeometry x="410" y="-40" width="95" height="50" as="geometry" />
        </mxCell>
        <mxCell id="6a526D09Ed9itnyHOBgA-21" style="edgeStyle=orthogonalEdgeStyle;rounded=0;orthogonalLoop=1;jettySize=auto;html=1;" edge="1" parent="1" source="6a526D09Ed9itnyHOBgA-19" target="6a526D09Ed9itnyHOBgA-4">
          <mxGeometry relative="1" as="geometry" />
        </mxCell>
        <mxCell id="6a526D09Ed9itnyHOBgA-19" value="Cnome" style="ellipse;whiteSpace=wrap;html=1;" vertex="1" parent="1">
          <mxGeometry x="637.5" y="-10" width="95" height="50" as="geometry" />
        </mxCell>
        <mxCell id="6a526D09Ed9itnyHOBgA-22" style="edgeStyle=orthogonalEdgeStyle;rounded=0;orthogonalLoop=1;jettySize=auto;html=1;" edge="1" parent="1" source="6a526D09Ed9itnyHOBgA-20" target="6a526D09Ed9itnyHOBgA-4">
          <mxGeometry relative="1" as="geometry" />
        </mxCell>
        <mxCell id="6a526D09Ed9itnyHOBgA-20" value="&lt;div&gt;Cendereço&lt;/div&gt;" style="ellipse;whiteSpace=wrap;html=1;" vertex="1" parent="1">
          <mxGeometry x="810" y="95" width="95" height="50" as="geometry" />
        </mxCell>
      </root>
    </mxGraphModel>
  </diagram>
</mxfile>
